<svg width="167" height="53" viewBox="0 0 167 53" fill="none" xmlns="http://www.w3.org/2000/svg">
<path d="M44.46 25.92C45.38 25.92 46.04 26.12 46.44 26.52C46.88 26.92 47.1 27.44 47.1 28.08C47.1 29.12 46.78 30.04 46.14 30.84C45.54 31.64 44.58 32.06 43.26 32.1C40.06 32.18 37.22 31.94 34.74 31.38C31.9 37.34 28.46 42.3 24.42 46.26C20.42 50.18 16.4 52.14 12.36 52.14C8.2 52.14 5.1 49.72 3.06 44.88C1.02 40.04 0 33.5 0 25.26C0 18.22 0.5 11.9 1.5 6.3C1.86 4.22 2.36 2.82 3 2.1C3.68 1.34 4.82 0.960001 6.42 0.960001C9.06 0.960001 10.38 2.1 10.38 4.38C10.38 4.62 10.34 5.06 10.26 5.7C9.06 12.9 8.46 19.42 8.46 25.26C8.46 31.38 8.96 36.04 9.96 39.24C11 42.4 12.54 43.98 14.58 43.98C16.66 43.98 18.92 42.54 21.36 39.66C23.8 36.78 26.04 33.16 28.08 28.8C25.64 27.28 23.8 25.32 22.56 22.92C21.32 20.48 20.7 17.68 20.7 14.52C20.7 11.36 21.18 8.7 22.14 6.54C23.14 4.34 24.48 2.7 26.16 1.62C27.88 0.540003 29.78 2.32458e-06 31.86 2.32458e-06C34.42 2.32458e-06 36.44 0.920002 37.92 2.76C39.44 4.6 40.2 7.12 40.2 10.32C40.2 14.92 39.2 19.94 37.2 25.38C39.32 25.74 41.74 25.92 44.46 25.92ZM26.76 14.1C26.76 18.02 28.02 20.92 30.54 22.8C32.1 18.32 32.88 14.62 32.88 11.7C32.88 10.02 32.66 8.8 32.22 8.04C31.78 7.24 31.18 6.84 30.42 6.84C29.34 6.84 28.46 7.48 27.78 8.76C27.1 10 26.76 11.78 26.76 14.1Z" fill="white"/>
<path d="M46.2394 52.14C43.7594 52.14 41.7794 51.24 40.2994 49.44C38.8194 47.64 38.0794 45.28 38.0794 42.36C38.0794 39.16 38.8194 36.14 40.2994 33.3C41.7794 30.42 43.7394 28.12 46.1794 26.4C48.6594 24.64 51.2794 23.76 54.0394 23.76C54.9194 23.76 55.4994 23.94 55.7794 24.3C56.0994 24.62 56.3594 25.22 56.5594 26.1C57.3994 25.94 58.2794 25.86 59.1994 25.86C61.1594 25.86 62.1394 26.56 62.1394 27.96C62.1394 28.8 61.8394 30.8 61.2394 33.96C60.3194 38.56 59.8594 41.76 59.8594 43.56C59.8594 44.16 59.9994 44.64 60.2794 45C60.5994 45.36 60.9994 45.54 61.4794 45.54C62.2394 45.54 63.1594 45.06 64.2394 44.1C65.3194 43.1 66.7794 41.5 68.6194 39.3C69.0994 38.74 69.6394 38.46 70.2394 38.46C70.7594 38.46 71.1594 38.7 71.4394 39.18C71.7594 39.66 71.9194 40.32 71.9194 41.16C71.9194 42.76 71.5394 44 70.7794 44.88C69.1394 46.92 67.3994 48.64 65.5594 50.04C63.7194 51.44 61.9394 52.14 60.2194 52.14C58.8994 52.14 57.6794 51.7 56.5594 50.82C55.4794 49.9 54.6594 48.66 54.0994 47.1C52.0194 50.46 49.3994 52.14 46.2394 52.14ZM48.3994 46.08C49.2794 46.08 50.1194 45.56 50.9194 44.52C51.7194 43.48 52.2994 42.1 52.6594 40.38L54.8794 29.34C53.1994 29.38 51.6394 30.02 50.1994 31.26C48.7994 32.46 47.6794 34.06 46.8394 36.06C45.9994 38.06 45.5794 40.18 45.5794 42.42C45.5794 43.66 45.8194 44.58 46.2994 45.18C46.8194 45.78 47.5194 46.08 48.3994 46.08Z" fill="white"/>
<path d="M71.303 52.14C69.783 52.14 68.703 51.34 68.063 49.74C67.463 48.14 67.163 45.58 67.163 42.06C67.163 36.86 67.903 31.92 69.383 27.24C69.743 26.08 70.323 25.24 71.123 24.72C71.963 24.16 73.123 23.88 74.603 23.88C75.403 23.88 75.963 23.98 76.283 24.18C76.603 24.38 76.763 24.76 76.763 25.32C76.763 25.96 76.463 27.4 75.863 29.64C75.463 31.24 75.143 32.64 74.903 33.84C74.663 35.04 74.463 36.52 74.303 38.28C75.623 34.84 77.103 32.04 78.743 29.88C80.383 27.72 81.983 26.18 83.543 25.26C85.143 24.34 86.603 23.88 87.923 23.88C90.523 23.88 91.823 25.18 91.823 27.78C91.823 29.34 91.383 32.16 90.503 36.24C89.743 39.72 89.363 42.02 89.363 43.14C89.363 44.74 89.943 45.54 91.103 45.54C91.903 45.54 92.843 45.06 93.923 44.1C95.043 43.1 96.523 41.5 98.363 39.3C98.843 38.74 99.383 38.46 99.983 38.46C100.503 38.46 100.903 38.7 101.183 39.18C101.503 39.66 101.663 40.32 101.663 41.16C101.663 42.76 101.283 44 100.523 44.88C98.803 47 96.943 48.74 94.943 50.1C92.983 51.46 90.743 52.14 88.223 52.14C86.183 52.14 84.643 51.56 83.603 50.4C82.563 49.2 82.043 47.48 82.043 45.24C82.043 44.12 82.323 42.12 82.883 39.24C83.403 36.72 83.663 34.98 83.663 34.02C83.663 33.38 83.443 33.06 83.003 33.06C82.483 33.06 81.743 33.74 80.783 35.1C79.863 36.42 78.903 38.18 77.903 40.38C76.943 42.58 76.163 44.9 75.563 47.34C75.123 49.22 74.603 50.5 74.003 51.18C73.443 51.82 72.543 52.14 71.303 52.14Z" fill="white"/>
<path d="M142.08 25.92C143 25.92 143.66 26.12 144.06 26.52C144.5 26.92 144.72 27.44 144.72 28.08C144.72 29.12 144.4 30.04 143.76 30.84C143.16 31.64 142.2 32.06 140.88 32.1C137.68 32.18 134.84 31.94 132.36 31.38C129.52 37.34 126.08 42.3 122.04 46.26C118.04 50.18 114.02 52.14 109.98 52.14C105.82 52.14 102.72 49.72 100.68 44.88C98.6401 40.04 97.6201 33.5 97.6201 25.26C97.6201 18.22 98.1201 11.9 99.1201 6.3C99.4801 4.22 99.9801 2.82 100.62 2.1C101.3 1.34 102.44 0.959999 104.04 0.959999C106.68 0.959999 108 2.1 108 4.38C108 4.62 107.96 5.06 107.88 5.7C106.68 12.9 106.08 19.42 106.08 25.26C106.08 31.38 106.58 36.04 107.58 39.24C108.62 42.4 110.16 43.98 112.2 43.98C114.28 43.98 116.54 42.54 118.98 39.66C121.42 36.78 123.66 33.16 125.7 28.8C123.26 27.28 121.42 25.32 120.18 22.92C118.94 20.48 118.32 17.68 118.32 14.52C118.32 11.36 118.8 8.7 119.76 6.54C120.76 4.34 122.1 2.7 123.78 1.62C125.5 0.54 127.4 0 129.48 0C132.04 0 134.06 0.92 135.54 2.76C137.06 4.6 137.82 7.12 137.82 10.32C137.82 14.92 136.82 19.94 134.82 25.38C136.94 25.74 139.36 25.92 142.08 25.92ZM124.38 14.1C124.38 18.02 125.64 20.92 128.16 22.8C129.72 18.32 130.5 14.62 130.5 11.7C130.5 10.02 130.28 8.8 129.84 8.04C129.4 7.24 128.8 6.84 128.04 6.84C126.96 6.84 126.08 7.48 125.4 8.76C124.72 10 124.38 11.78 124.38 14.1Z" fill="white"/>
<path d="M148.81 52.14C146.93 52.14 145.41 51.38 144.25 49.86C143.13 48.3 142.57 46.16 142.57 43.44C142.57 40.44 142.77 37.7 143.17 35.22C143.57 32.7 144.23 30.04 145.15 27.24C145.55 26.04 146.11 25.18 146.83 24.66C147.55 24.14 148.69 23.88 150.25 23.88C151.13 23.88 151.73 24.02 152.05 24.3C152.41 24.58 152.59 25 152.59 25.56C152.59 25.88 152.37 26.96 151.93 28.8C151.53 30.28 151.21 31.62 150.97 32.82C150.17 37.02 149.77 39.82 149.77 41.22C149.77 42.06 149.87 42.66 150.07 43.02C150.27 43.34 150.59 43.5 151.03 43.5C151.63 43.5 152.39 42.9 153.31 41.7C154.23 40.46 155.19 38.62 156.19 36.18C157.23 33.7 158.21 30.72 159.13 27.24C159.45 26.04 159.93 25.18 160.57 24.66C161.25 24.14 162.25 23.88 163.57 23.88C164.45 23.88 165.07 24.12 165.43 24.6C165.83 25.04 166.03 25.72 166.03 26.64C166.03 27.64 165.95 28.76 165.79 30C165.63 31.2 165.45 32.44 165.25 33.72C164.85 36.28 164.53 38.62 164.29 40.74C164.05 42.82 163.93 45.2 163.93 47.88C163.93 49.4 163.61 50.5 162.97 51.18C162.37 51.82 161.37 52.14 159.97 52.14C158.49 52.14 157.45 51.76 156.85 51C156.29 50.2 156.01 48.68 156.01 46.44C156.01 46 156.05 45.02 156.13 43.5C155.45 46.3 154.43 48.44 153.07 49.92C151.75 51.4 150.33 52.14 148.81 52.14Z" fill="white"/>
</svg>
