<?xml version="1.0" encoding="UTF-8" standalone="no"?>
<!DOCTYPE svg PUBLIC "-//W3C//DTD SVG 1.1//EN" "http://www.w3.org/Graphics/SVG/1.1/DTD/svg11.dtd">
<svg width="100%" height="100%" viewBox="0 0 479 478" version="1.1" xmlns="http://www.w3.org/2000/svg" xmlns:xlink="http://www.w3.org/1999/xlink" xml:space="preserve" xmlns:serif="http://www.serif.com/" style="fill-rule:evenodd;clip-rule:evenodd;stroke-linejoin:round;">
    <g>
        <clipPath id="_clip1">
            <circle cx="239.213" cy="239.491" r="238.358"/>
        </clipPath>
        <g clip-path="url(#_clip1)">
            <path d="M417.37,494.307L60.203,494.307C60.203,494.307 69.318,398.669 92.12,378.193C102.256,369.093 135.83,344.902 168.299,321.991C211.388,291.592 266.185,291.592 309.274,321.991C341.745,344.902 375.317,369.093 385.453,378.193C408.255,398.669 417.37,494.307 417.37,494.307Z" style="fill:rgb(79,79,79);fill-rule:nonzero;"/>
            <path d="M417.183,495.905L417.183,493.333L60.391,493.333L60.391,495.905L62.652,496.18C62.654,496.177 62.686,495.815 62.759,495.114C63.294,489.85 65.893,465.821 71.003,440.802C73.554,428.296 76.736,415.542 80.563,404.814C84.367,394.085 88.909,385.418 93.696,381.137C98.598,376.7 109.525,368.31 123.2,358.23C136.887,348.136 153.372,336.3 169.58,324.784C190.63,309.835 214.512,302.249 238.404,302.249C262.565,302.249 286.731,309.682 307.992,324.784C324.202,336.3 340.687,348.136 354.374,358.23C368.049,368.31 378.976,376.7 383.88,381.137C386.42,383.428 388.923,386.946 391.257,391.378C395.354,399.126 398.941,409.613 401.951,420.924C406.473,437.901 409.726,456.749 411.836,471.323C412.892,478.611 413.665,484.835 414.173,489.23C414.426,491.427 414.614,493.17 414.737,494.359C414.863,495.549 414.922,496.177 414.922,496.18L417.183,495.905L419.447,495.631C419.44,495.577 417.158,471.468 412.008,444.69C409.429,431.3 406.135,417.243 402.015,405.138C399.953,399.083 397.683,393.513 395.164,388.738C392.64,383.968 389.874,379.976 386.722,377.116C381.498,372.403 370.596,364.052 356.861,353.92C343.138,343.8 326.635,331.951 310.41,320.428C288.403,304.793 263.388,297.102 238.404,297.102C213.662,297.102 188.938,304.959 167.163,320.425C150.939,331.951 134.438,343.8 120.715,353.92C106.981,364.052 96.076,372.403 90.855,377.116C87.7,379.976 84.934,383.968 82.412,388.738C78.007,397.092 74.347,407.889 71.268,419.44C62.053,454.07 58.141,495.551 58.127,495.631C58.061,496.353 58.269,497.084 58.699,497.625C59.126,498.165 59.748,498.478 60.391,498.478L417.183,498.478C417.826,498.478 418.448,498.165 418.875,497.625C419.305,497.084 419.515,496.353 419.447,495.631L417.183,495.905Z" style="fill:rgb(79,79,79);fill-rule:nonzero;"/>
            <path d="M178.505,80.559C167.572,84.319 158.603,92.492 151.866,101.879C140.921,117.129 135.231,136.075 135.968,154.824C137.745,200.067 161.381,237.17 167.027,282.096C171.256,277.737 182.254,271.67 185.003,266.259C190.455,272.702 198.661,283.098 199.749,291.464C208.762,257.008 202.971,220.197 195.169,185.449C187.368,150.7 176.966,116.136 178.505,80.559Z" style="fill:rgb(79,79,79);fill-rule:nonzero;"/>
            <path d="M299.298,80.559C310.229,84.319 319.198,92.492 325.935,101.879C336.882,117.129 342.569,136.075 341.833,154.824C340.056,200.067 314.362,239.282 308.719,284.208C304.49,279.849 293.492,278.005 290.743,272.594C285.291,279.037 279.14,283.098 278.051,291.464C269.039,257.008 274.829,220.197 282.632,185.449C290.434,150.7 300.835,116.136 299.298,80.559Z" style="fill:rgb(79,79,79);fill-rule:nonzero;"/>
            <path d="M304.455,318.768L303.883,319.174C264.937,346.938 212.585,346.774 173.814,318.768C178.566,316.603 185.923,314.021 195.006,303.661C204.092,293.281 200.632,263.902 200.632,263.902L277.638,263.902C277.638,263.902 274.178,293.281 283.263,303.661C292.347,314.021 299.703,316.603 304.455,318.768Z" style="fill:white;fill-rule:nonzero;"/>
            <path d="M303.654,318.407C239.925,315.938 209.133,275.463 202.611,265.701L208.02,271.7C215.283,279.753 225.624,284.389 236.474,284.48L239.333,284.498L240.206,284.498L243.047,284.48C253.898,284.389 264.239,279.753 271.522,271.7L277.516,265.078C277.328,267.06 276.99,271.357 276.99,276.481C276.992,285.766 278.108,297.772 283.263,303.661C291.852,313.456 298.895,316.297 303.654,318.407Z" style="fill:rgb(220,220,222);fill-rule:nonzero;"/>
            <path d="M304.457,318.766L303.133,316.917L302.561,317.325C283.581,330.855 261.358,337.611 239.132,337.611C216.68,337.611 194.237,330.713 175.149,316.924L173.816,318.766L174.761,320.833C177.047,319.789 180.242,318.538 183.988,316.216C187.738,313.893 192.042,310.494 196.721,305.155C199.737,301.675 201.338,296.862 202.314,291.754C203.277,286.643 203.554,281.2 203.556,276.464C203.556,269.255 202.9,263.693 202.893,263.636L200.634,263.901L200.634,266.173L277.64,266.173L277.64,263.901L275.38,263.636C275.373,263.693 274.717,269.255 274.717,276.464C274.719,281.2 274.996,286.643 275.959,291.754C276.935,296.862 278.536,301.675 281.552,305.155C286.231,310.494 290.535,313.893 294.285,316.216C298.031,318.538 301.226,319.789 303.513,320.833L304.457,318.766L303.133,316.917L304.457,318.766L305.401,316.697C302.936,315.579 300.078,314.455 296.686,312.354C293.3,310.256 289.382,307.185 284.978,302.161L284.978,302.164C282.838,299.75 281.301,295.61 280.432,290.913C279.547,286.223 279.268,281.015 279.268,276.464C279.268,272.998 279.428,269.906 279.586,267.694C279.666,266.586 279.743,265.698 279.803,265.088C279.833,264.785 279.858,264.552 279.874,264.394L279.899,264.166C279.974,263.522 279.773,262.876 279.341,262.392C278.909,261.905 278.289,261.629 277.64,261.629L200.634,261.629C199.984,261.629 199.364,261.905 198.932,262.392C198.5,262.876 198.299,263.522 198.374,264.166L198.399,264.394C198.516,265.488 199.005,270.395 199.005,276.464C199.005,281.015 198.726,286.223 197.841,290.913C196.972,295.61 195.436,299.75 193.295,302.164L193.295,302.161C188.891,307.185 184.974,310.256 181.587,312.354C178.195,314.455 175.337,315.579 172.872,316.697C172.133,317.035 171.632,317.732 171.552,318.54C171.472,319.349 171.824,320.129 172.483,320.607C192.362,334.967 215.747,342.157 239.132,342.157C262.279,342.157 285.44,335.115 305.207,321.022L305.781,320.614C306.442,320.141 306.801,319.355 306.723,318.547C306.643,317.739 306.14,317.035 305.401,316.697L304.457,318.766Z" style="fill:rgb(79,79,79);fill-rule:nonzero;"/>
            <path d="M174.999,193.127C174.153,188.119 168.964,184.452 163.885,184.708C158.806,184.961 154.249,188.676 152.334,193.383C150.42,198.089 150.94,203.564 153.057,208.183C155.177,212.801 158.772,216.621 162.838,219.676C165.456,221.644 168.479,223.384 171.756,223.37C175.033,223.357 178.482,221 178.656,217.73C178.374,217.395 174.999,193.127 174.999,193.127Z" style="fill:white;fill-rule:nonzero;"/>
            <path d="M175,193.126L177.243,192.75C176.722,189.676 174.943,187.096 172.628,185.299C170.303,183.502 167.403,182.426 164.389,182.422C164.183,182.422 163.977,182.426 163.772,182.438C160.705,182.593 157.867,183.781 155.535,185.575C153.2,187.375 151.345,189.786 150.227,192.526C149.294,194.823 148.873,197.25 148.873,199.662C148.875,202.938 149.641,206.187 150.991,209.128C153.323,214.204 157.197,218.278 161.471,221.491C162.855,222.53 164.382,223.546 166.088,224.324C167.787,225.101 169.681,225.642 171.721,225.642L171.766,225.642C173.948,225.626 176.056,224.877 177.765,223.569C179.455,222.269 180.799,220.281 180.93,217.851C180.959,217.28 180.772,216.714 180.404,216.276L178.7,217.696L180.715,216.762C180.664,216.666 180.616,216.538 180.404,216.276L178.7,217.696L180.715,216.762L178.974,217.568L180.815,217.024L180.715,216.762L178.974,217.568L180.815,217.024L180.228,217.198L180.822,217.054L180.815,217.024L180.228,217.198L180.822,217.054C180.797,216.961 180.687,216.367 180.561,215.588C180.104,212.805 179.274,207.092 178.563,202.1C177.852,197.104 177.255,192.823 177.255,192.814L177.243,192.75L175,193.126L172.745,193.439C172.747,193.442 173.591,199.511 174.469,205.626C174.911,208.683 175.359,211.752 175.718,214.088C175.896,215.257 176.052,216.241 176.175,216.961C176.237,217.321 176.292,217.616 176.34,217.856L176.42,218.207L176.493,218.449L176.587,218.675C176.639,218.783 176.692,218.917 176.909,219.187L178.656,217.73L176.383,217.611C176.342,218.449 175.873,219.274 174.977,219.975C174.099,220.664 172.843,221.103 171.748,221.098L171.755,221.098L171.721,221.098C170.497,221.098 169.251,220.772 167.979,220.192C166.708,219.614 165.432,218.783 164.208,217.86C160.351,214.963 157.032,211.396 155.127,207.236C154.037,204.859 153.424,202.221 153.426,199.662C153.426,197.775 153.753,195.935 154.444,194.236C155.24,192.272 156.619,190.473 158.311,189.176C160.005,187.872 161.986,187.075 163.998,186.975L164.389,186.966C166.289,186.961 168.286,187.681 169.834,188.888C171.391,190.096 172.462,191.734 172.757,193.503L175,193.126L172.745,193.439L175,193.126Z" style="fill:rgb(79,79,79);fill-rule:nonzero;"/>
            <path d="M161.922,192.273C166.512,192.525 170.799,195.744 172.316,200.078C171.069,202.236 169.615,205.033 169.583,207.524C169.553,210.018 171.27,212.719 173.763,212.847" style="fill:white;fill-rule:nonzero;"/>
            <path d="M161.795,194.543C163.597,194.639 165.404,195.333 166.904,196.461C168.404,197.587 169.575,199.126 170.167,200.827L172.315,200.078L170.343,198.943C169.699,200.06 168.974,201.379 168.384,202.818C167.803,204.256 167.334,205.818 167.307,207.497L167.307,207.494L167.307,207.59C167.316,209.346 167.881,211.043 168.916,212.454C169.941,213.844 171.587,215.009 173.643,215.116C174.899,215.182 175.969,214.219 176.033,212.965C176.099,211.712 175.134,210.643 173.879,210.579C173.463,210.556 173.021,210.328 172.573,209.743C172.139,209.175 171.85,208.305 171.857,207.59L171.86,207.551C171.862,206.738 172.136,205.656 172.6,204.535C173.058,203.412 173.684,202.254 174.288,201.21C174.615,200.642 174.681,199.948 174.464,199.327C173.54,196.694 171.809,194.458 169.639,192.828C167.467,191.2 164.834,190.161 162.045,190.003C160.791,189.935 159.717,190.896 159.648,192.148C159.579,193.401 160.538,194.474 161.795,194.543Z" style="fill:rgb(79,79,79);fill-rule:nonzero;"/>
            <path d="M303.408,193.127C304.257,188.119 309.443,184.452 314.522,184.708C319.603,184.961 324.161,188.676 326.075,193.383C327.989,198.089 327.468,203.564 325.35,208.183C323.233,212.801 319.635,216.621 315.569,219.676C312.951,221.644 309.93,223.384 306.651,223.37C303.374,223.357 299.928,221 299.754,217.73C300.033,217.395 303.408,193.127 303.408,193.127Z" style="fill:white;fill-rule:nonzero;"/>
            <path d="M303.409,193.126L305.655,193.505C305.95,191.734 307.02,190.096 308.577,188.888C310.125,187.681 312.122,186.961 314.022,186.966L314.409,186.975C316.426,187.075 318.404,187.872 320.098,189.176C321.79,190.473 323.169,192.272 323.967,194.236C324.656,195.935 324.985,197.775 324.985,199.662C324.987,202.221 324.374,204.859 323.281,207.238C321.379,211.396 318.061,214.963 314.203,217.86C312.977,218.783 311.699,219.614 310.43,220.192C309.158,220.772 307.914,221.098 306.691,221.098L306.656,221.098L306.661,221.098C305.565,221.103 304.312,220.664 303.432,219.975C302.538,219.274 302.069,218.452 302.028,217.611L299.755,217.73L301.504,219.185C301.721,218.915 301.772,218.78 301.827,218.673L301.961,218.312C302.039,218.036 302.069,217.867 302.124,217.582C302.311,216.581 302.616,214.627 302.981,212.186C304.072,204.886 305.664,193.444 305.664,193.439L303.409,193.126L305.655,193.505L303.409,193.126L301.157,192.814C301.154,192.818 300.946,194.33 300.624,196.609C300.144,200.025 299.416,205.162 298.783,209.469C298.465,211.62 298.172,213.567 297.948,214.979C297.836,215.682 297.74,216.255 297.671,216.636L297.594,217.034L297.587,217.059L298.703,217.337L297.612,216.974L297.587,217.059L298.703,217.337L297.612,216.974L299.505,217.602L297.681,216.796L297.612,216.974L299.505,217.602L297.681,216.796L299.709,217.693L298.003,216.278C297.768,216.575 297.731,216.7 297.681,216.796L299.709,217.693L298.003,216.278C297.637,216.718 297.452,217.28 297.482,217.851C297.612,220.278 298.954,222.269 300.647,223.569C302.353,224.877 304.463,225.626 306.645,225.642L306.691,225.642C308.73,225.642 310.622,225.101 312.323,224.324C314.024,223.546 315.557,222.53 316.94,221.491C321.212,218.278 325.088,214.207 327.421,209.128C328.767,206.187 329.534,202.938 329.536,199.662C329.536,197.25 329.117,194.823 328.184,192.528C327.066,189.786 325.209,187.375 322.877,185.575C320.542,183.781 317.704,182.593 314.637,182.438L314.022,182.422C311.006,182.426 308.106,183.502 305.783,185.299C303.466,187.096 301.689,189.676 301.166,192.75L301.157,192.814L303.409,193.126Z" style="fill:rgb(79,79,79);fill-rule:nonzero;"/>
            <path d="M316.488,192.273C311.896,192.525 307.608,195.744 306.092,200.078C307.338,202.236 308.795,205.033 308.825,207.524C308.854,210.018 307.139,212.719 304.646,212.847" style="fill:white;fill-rule:nonzero;"/>
            <path d="M316.365,190.003C313.575,190.161 310.942,191.2 308.772,192.828C306.602,194.458 304.871,196.694 303.947,199.327C303.73,199.948 303.794,200.642 304.123,201.21C304.725,202.254 305.351,203.412 305.811,204.535C306.273,205.656 306.547,206.738 306.552,207.551L306.552,207.547L306.552,207.59C306.561,208.305 306.273,209.175 305.838,209.743C305.39,210.328 304.946,210.556 304.53,210.577C303.275,210.643 302.312,211.712 302.376,212.965C302.442,214.219 303.513,215.182 304.768,215.116C306.822,215.009 308.468,213.844 309.493,212.454C310.529,211.043 311.096,209.346 311.103,207.59L311.103,207.497C311.077,205.818 310.609,204.256 310.023,202.818C309.435,201.379 308.711,200.06 308.068,198.943L306.094,200.078L308.244,200.827C308.836,199.126 310.007,197.587 311.507,196.461C313.005,195.333 314.814,194.639 316.614,194.543C317.869,194.474 318.83,193.401 318.761,192.148C318.693,190.896 317.62,189.935 316.365,190.003Z" style="fill:rgb(79,79,79);fill-rule:nonzero;"/>
            <path d="M244.801,84.188C280.377,86.615 309.108,115.561 311.24,151.102C311.8,160.446 301.1,231.19 301.1,231.19C300.331,236.851 297.871,242.146 294.038,246.386L270.88,272.008C263.601,280.062 253.274,284.697 242.407,284.788L239.564,284.811L238.693,284.811L235.85,284.788C224.986,284.697 214.656,280.062 207.377,272.008L184.221,246.386C180.388,242.146 177.925,236.851 177.159,231.19C177.159,231.19 166.457,160.446 167.017,151.102C169.151,115.561 197.882,86.615 233.458,84.188L244.801,84.188Z" style="fill:white;fill-rule:nonzero;"/>
            <path d="M244.8,84.188L244.645,86.453C279.061,88.789 306.917,116.855 308.968,151.24L308.968,151.238C308.98,151.416 308.984,151.653 308.984,151.937C308.986,153.298 308.833,155.643 308.559,158.597C307.594,168.98 305.165,187.078 302.979,202.537C301.886,210.27 300.852,217.349 300.093,222.496C299.334,227.643 298.849,230.844 298.849,230.851L298.844,230.887C298.138,236.091 295.874,240.964 292.348,244.864L269.191,270.486C262.338,278.067 252.617,282.43 242.388,282.517L239.545,282.54L239.563,282.54L238.692,282.54L238.713,282.54L235.87,282.517C225.641,282.43 215.918,278.067 209.067,270.486L185.91,244.866C182.384,240.964 180.12,236.091 179.413,230.887L179.409,230.851C179.409,230.848 179.251,229.805 178.972,227.946C178,221.441 175.572,205.003 173.385,188.884C172.292,180.826 171.261,172.846 170.504,166.235C169.743,159.645 169.267,154.348 169.269,151.939C169.269,151.656 169.278,151.418 169.287,151.24C171.341,116.855 199.194,88.789 233.613,86.453L233.458,84.188L233.458,86.46L244.8,86.46L244.8,84.188L244.645,86.453L244.8,84.188L244.8,81.914L233.458,81.914L233.302,81.921C196.567,84.44 166.96,114.27 164.744,150.968L164.744,150.966C164.725,151.268 164.721,151.587 164.721,151.939C164.723,153.597 164.888,155.992 165.167,159.022C167.129,180.121 174.906,231.504 174.908,231.531L177.159,231.191L174.904,231.495C175.732,237.61 178.391,243.329 182.53,247.91L205.689,273.53C213.393,282.058 224.329,286.965 235.831,287.061L238.674,287.086L239.584,287.086L242.427,287.061C253.929,286.965 264.862,282.058 272.569,273.53L295.727,247.91C299.867,243.329 302.524,237.61 303.354,231.495L301.099,231.191L303.349,231.531C303.349,231.524 305.89,214.723 308.433,196.403C309.704,187.242 310.976,177.702 311.932,169.681C312.41,165.671 312.81,162.041 313.089,159.017C313.37,155.99 313.535,153.594 313.537,151.937C313.537,151.587 313.528,151.268 313.512,150.968C311.296,114.27 281.689,84.44 244.953,81.921L244.8,81.914L244.8,84.188Z" style="fill:rgb(79,79,79);fill-rule:nonzero;"/>
            <path d="M287.294,124.911C292.053,131.823 304.166,152.988 303.734,160.334C298.104,158.466 294.559,158.233 288.629,158.308C282.88,149.734 267.394,140.03 256.687,127.894C259.603,135.831 271.446,155.185 276.15,158.308C267.28,158.493 258.018,158.057 249.15,158.242C240.135,149.6 233.323,139.233 228.569,129.225C228.891,138.735 243.078,157.74 243.078,157.74L235.722,157.74C226.687,150.755 223.176,140.733 218.829,130.179C219.371,137.936 221.317,144.416 228.786,158.126C221.429,157.938 215.564,158.391 208.209,158.203C192.775,147.611 184.936,127.083 189.386,108.919C190.457,104.56 192.204,100.285 195.117,96.867C198.031,93.451 214.953,90.88 219.444,90.736C258.309,89.492 278.771,112.533 287.294,124.911Z" style="fill:rgb(79,79,79);fill-rule:nonzero;"/>
            <path d="M181.53,94.627C166.915,102.984 158.721,119.74 156.544,136.415C154.367,153.089 157.349,169.956 160.32,186.508C163.233,184.529 169.195,185.22 170.864,188.319C173.659,193.511 173.172,200.716 174.118,206.534C175.641,194.598 173.535,183.252 173.958,171.228C174.381,159.203 175.909,146.93 181.322,136.18C186.737,125.432 196.63,116.36 208.544,114.547C202.72,104.315 194.098,95.718 182.719,92.654C182.811,92.179 181.439,95.102 181.53,94.627Z" style="fill:rgb(79,79,79);fill-rule:nonzero;"/>
            <path d="M297.67,94.627C312.283,102.984 320.479,119.74 322.656,136.415C324.833,153.089 321.851,169.956 318.881,186.508C315.967,184.529 310.005,185.22 308.336,188.319C305.542,193.511 306.029,200.716 305.082,206.534C303.557,194.598 305.663,183.252 305.242,171.228C304.819,159.203 303.291,146.93 297.878,136.18C292.463,125.432 282.571,116.36 270.656,114.547C276.481,104.315 285.102,95.718 296.481,92.654C296.39,92.179 297.762,95.102 297.67,94.627Z" style="fill:rgb(79,79,79);fill-rule:nonzero;"/>
            <path d="M298.118,181.49C295.282,161.152 278.977,151.516 260.051,143.48C241.126,135.443 226.844,123.728 208.238,114.973C194.948,108.721 176.438,95.041 178.505,80.56C181.697,58.187 258.271,16.07 323.813,99.007L298.118,181.49Z" style="fill:rgb(79,79,79);fill-rule:nonzero;"/>
            <path d="M201.953,104.063C194.766,96.332 189.273,86.936 180.212,81.51C178.47,80.467 176.444,82.319 175.305,84.001C165.833,97.987 160.189,114.53 159.135,131.382C170.006,118.058 185.172,107.883 201.953,104.063Z" style="fill:rgb(79,79,79);fill-rule:nonzero;"/>
            <path d="M204.494,185.982C204.494,188.935 206.891,191.328 209.848,191.328C212.804,191.328 215.201,188.935 215.201,185.982C215.201,183.03 212.804,180.637 209.848,180.637C206.891,180.637 204.494,183.03 204.494,185.982Z" style="fill:rgb(79,79,79);fill-rule:nonzero;"/>
            <path d="M274.256,185.982C274.256,188.935 271.859,191.328 268.902,191.328C265.945,191.328 263.549,188.935 263.549,185.982C263.549,183.03 265.945,180.637 268.902,180.637C271.859,180.637 274.256,183.03 274.256,185.982Z" style="fill:rgb(79,79,79);fill-rule:nonzero;"/>
            <path d="M194.8,172.946L196.566,171.553C199.932,168.9 204,167.45 208.123,167.45C208.844,167.45 209.564,167.494 210.287,167.585C213.895,168.035 217.419,169.213 220.653,171.095C220.998,171.295 221.403,171.403 221.798,171.403L221.801,171.403C223.058,171.403 224.076,170.387 224.076,169.131C224.076,167.877 223.058,166.859 221.801,166.859L221.798,166.859L221.798,169.131L222.946,167.167C219.182,164.977 215.068,163.6 210.852,163.075C209.939,162.961 209.029,162.906 208.123,162.906C202.928,162.906 197.876,164.731 193.746,167.987L191.979,169.38C190.993,170.156 190.824,171.585 191.603,172.572C192.383,173.556 193.813,173.725 194.8,172.946Z" style="fill:rgb(79,79,79);fill-rule:nonzero;"/>
            <path d="M286.808,169.38L285.042,167.987C280.912,164.731 275.861,162.906 270.665,162.906C269.757,162.906 268.847,162.961 267.937,163.075C263.718,163.6 259.604,164.977 255.842,167.167C254.756,167.8 254.388,169.192 255.021,170.275C255.654,171.359 257.047,171.727 258.133,171.095C261.367,169.213 264.891,168.035 268.502,167.585C269.222,167.494 269.945,167.45 270.665,167.45C274.786,167.45 278.854,168.9 282.22,171.553L283.986,172.946C284.971,173.725 286.403,173.556 287.183,172.572C287.963,171.588 287.793,170.158 286.808,169.38Z" style="fill:rgb(57,62,92);fill-rule:nonzero;"/>
            <path d="M286.808,169.38L285.042,167.987C280.912,164.731 275.861,162.906 270.665,162.906C269.757,162.906 268.847,162.961 267.937,163.075C263.718,163.6 259.604,164.977 255.842,167.167C254.756,167.8 254.388,169.192 255.021,170.275C255.654,171.359 257.047,171.727 258.133,171.095C261.367,169.213 264.891,168.035 268.502,167.585C269.222,167.494 269.945,167.45 270.665,167.45C274.786,167.45 278.854,168.9 282.22,171.553L283.986,172.946C284.971,173.725 286.403,173.556 287.183,172.572C287.963,171.588 287.793,170.158 286.808,169.38Z" style="fill:rgb(79,79,79);fill-rule:nonzero;"/>
            <path d="M193.279,303.699L164.342,325.403L207.174,362.337L236.374,337.066L193.279,303.699Z" style="fill:white;fill-rule:nonzero;"/>
            <path d="M193.28,303.698L191.912,301.881L162.979,323.584C162.426,324 162.094,324.635 162.072,325.324C162.049,326.014 162.335,326.669 162.858,327.121L205.686,364.055C206.545,364.795 207.808,364.793 208.665,364.053L237.866,338.782C238.38,338.335 238.668,337.684 238.65,337.004C238.632,336.321 238.309,335.686 237.769,335.268L194.675,301.901C193.865,301.275 192.731,301.266 191.912,301.881L193.28,303.698L191.885,305.493L232.787,337.161L207.172,359.331L167.969,325.525L194.645,305.516L193.28,303.698L191.885,305.493L193.28,303.698Z" style="fill:rgb(79,79,79);fill-rule:nonzero;"/>
            <path d="M284.015,303.699L312.948,325.403L270.118,362.337L240.92,337.066L284.015,303.699Z" style="fill:white;fill-rule:nonzero;"/>
            <path d="M284.014,303.698L282.646,305.516L309.322,325.525L270.119,359.331L244.507,337.161L285.406,305.493L284.014,303.698L282.646,305.516L284.014,303.698L282.619,301.901L239.524,335.268C238.984,335.686 238.662,336.321 238.643,337.004C238.625,337.684 238.911,338.335 239.428,338.782L268.628,364.053C269.483,364.793 270.748,364.795 271.605,364.055L314.433,327.121C314.956,326.669 315.245,326.014 315.219,325.324C315.197,324.635 314.865,324 314.314,323.584L285.379,301.881C284.56,301.266 283.428,301.275 282.619,301.901L284.014,303.698Z" style="fill:rgb(79,79,79);fill-rule:nonzero;"/>
            <path d="M222.117,349.156L232.714,339.34L244.126,339.34L255.537,349.512L254.675,349.791C244.057,353.214 232.595,352.99 222.117,349.156Z" style="fill:rgb(79,79,79);fill-rule:nonzero;"/>
            <path d="M208.96,214.524L208.96,210.436C200.399,210.436 192.756,205.49 190.216,198.184C189.39,195.813 188.882,193.548 188.585,191.887C188.436,191.058 188.34,190.378 188.281,189.914C188.251,189.68 188.233,189.501 188.219,189.382L188.203,189.218L188.196,189.15C188.139,188.67 188.109,188.193 188.109,187.725C188.109,184.493 189.461,181.561 191.69,179.443C193.929,177.326 197.003,176.018 200.646,176.012L215.055,176.012C218.698,176.018 221.771,177.326 224.01,179.443C226.24,181.561 227.591,184.493 227.591,187.725C227.591,188.193 227.561,188.67 227.504,189.15L227.49,189.384L227.49,189.397C227.502,189.668 227.426,195.244 224.991,200.467C223.781,203.081 222.011,205.58 219.484,207.395C216.948,209.206 213.66,210.425 208.96,210.436L208.96,214.524C214.568,214.534 219.034,212.971 222.331,210.584C227.289,206.995 229.631,201.827 230.827,197.562C232.012,193.281 232.039,189.817 232.041,189.397L232.041,189.36L229.766,189.372L232.028,189.594C232.105,188.965 232.142,188.343 232.142,187.725C232.142,183.467 230.358,179.523 227.317,176.636C224.284,173.745 219.953,171.92 215.055,171.926L200.646,171.926C195.747,171.92 191.416,173.745 188.384,176.636C185.342,179.523 183.559,183.467 183.559,187.725C183.559,188.343 183.595,188.965 183.673,189.594L185.935,189.372L183.666,189.526C183.675,189.618 184.053,194.168 185.873,199.404C189.026,208.452 198.439,214.522 208.96,214.524Z" style="fill:rgb(255,205,230);fill-rule:nonzero;"/>
            <path d="M271.724,214.524L271.724,210.436C263.16,210.436 255.518,205.49 252.979,198.184C252.151,195.815 251.644,193.548 251.346,191.887C251.198,191.058 251.102,190.38 251.044,189.914C251.015,189.682 250.996,189.501 250.983,189.384L250.967,189.218L250.96,189.15C250.9,188.67 250.873,188.193 250.873,187.725C250.873,184.493 252.225,181.561 254.454,179.443C256.691,177.326 259.766,176.018 263.409,176.012L277.818,176.012C281.461,176.018 284.535,177.326 286.774,179.443C289.003,181.561 290.352,184.496 290.355,187.727C290.355,188.195 290.325,188.67 290.268,189.15L290.254,189.384L290.254,189.397C290.263,189.668 290.19,195.244 287.755,200.465C286.545,203.081 284.775,205.58 282.246,207.395C279.71,209.206 276.424,210.425 271.724,210.436L271.724,214.524C277.331,214.534 281.795,212.971 285.093,210.584C290.053,206.995 292.395,201.827 293.588,197.562C294.775,193.281 294.803,189.817 294.805,189.397L294.805,189.36L292.529,189.372L294.791,189.594C294.867,188.967 294.905,188.343 294.905,187.727C294.905,183.469 293.122,179.525 290.08,176.636C287.048,173.745 282.717,171.92 277.818,171.926L263.409,171.926C258.511,171.92 254.18,173.745 251.145,176.636C248.106,179.523 246.322,183.467 246.322,187.725C246.322,188.343 246.359,188.965 246.434,189.594L248.698,189.372L246.425,189.526C246.439,189.618 246.814,194.168 248.634,199.404C251.79,208.452 261.203,214.522 271.724,214.524Z" style="fill:rgb(255,205,230);fill-rule:nonzero;"/>
            <path d="M230.68,186.469L248.613,186.469C249.868,186.469 250.888,185.553 250.888,184.426C250.888,183.296 249.868,182.383 248.613,182.383L230.68,182.383C229.424,182.383 228.404,183.296 228.404,184.426C228.404,185.553 229.424,186.469 230.68,186.469Z" style="fill:rgb(255,205,230);fill-rule:nonzero;"/>
            <path d="M172.078,186.469L186.208,186.469C187.466,186.469 188.484,185.553 188.484,184.426C188.484,183.296 187.466,182.383 186.208,182.383L172.078,182.383C170.823,182.383 169.803,183.296 169.803,184.426C169.803,185.553 170.823,186.469 172.078,186.469Z" style="fill:rgb(255,205,230);fill-rule:nonzero;"/>
            <path d="M294.049,186.469L308.179,186.469C309.437,186.469 310.454,185.553 310.454,184.426C310.454,183.296 309.437,182.383 308.179,182.383L294.049,182.383C292.793,182.383 291.773,183.296 291.773,184.426C291.773,185.553 292.793,186.469 294.049,186.469Z" style="fill:rgb(255,205,230);fill-rule:nonzero;"/>
            <path d="M220.956,256.759C216.726,254.225 212.849,247.608 211.439,245.145L261.137,245.145C258.67,248.664 253.234,255.87 247.391,257.814C242.316,259.504 236.112,259.926 233.645,259.926C231.178,259.574 225.186,259.293 220.956,256.759Z" style="fill:none;fill-rule:nonzero;stroke:rgb(79,79,79);stroke-width:3.9px;"/>
            <path d="M233.779,201.855C232.017,204.319 228.704,210.091 229.55,213.47C230.607,217.693 230.607,219.804 238.009,220.86" style="fill:none;fill-rule:nonzero;stroke:rgb(79,79,79);stroke-width:3.9px;stroke-linecap:round;"/>
            <path d="M119.514,555.317L117.675,557.157L119.514,555.317C117.554,553.358 116.453,550.703 116.453,547.935C116.453,545.166 117.554,542.511 119.514,540.553C121.474,538.594 124.133,537.494 126.906,537.494L361.884,537.494C364.657,537.494 367.316,538.594 369.276,540.553C371.236,542.511 372.337,545.166 372.337,547.935C372.337,550.703 371.236,553.358 369.276,555.317C367.316,557.275 364.657,558.376 361.884,558.376L126.906,558.376C124.133,558.376 121.474,557.275 119.514,555.317ZM139.96,354.899L348.83,354.899C355.065,354.899 361.044,357.373 365.453,361.777C369.861,366.182 372.337,372.154 372.337,378.382L372.337,508.807C372.337,511.575 371.236,514.231 369.276,516.189C367.316,518.147 364.657,519.248 361.884,519.248L126.906,519.248C124.133,519.248 121.474,518.147 119.514,516.189C117.554,514.231 116.453,511.575 116.453,508.807L116.453,378.382C116.453,372.154 118.929,366.182 123.337,361.777C127.746,357.373 133.725,354.899 139.96,354.899Z" style="fill:white;fill-rule:nonzero;stroke:rgb(79,79,79);stroke-width:5.2px;stroke-linejoin:miter;"/>
            <g>
                <path d="M350.029,496.694C350.193,494.447 349.832,492.187 348.668,489.852C348.361,489.235 346.776,488.112 346.776,488.112C346.776,488.112 346.592,486.628 345.989,485.937C342.7,482.164 335.503,479.58 333.115,479.061C330.729,478.544 330.674,477.914 328.52,475.929C328.203,475.641 327.869,475.374 327.518,475.129C327.274,474.241 328.564,473.302 327.41,472.522C326.257,471.743 324.941,472.612 323.906,472.811C323.614,472.669 323.317,472.538 323.015,472.419C322.74,472.308 322.46,472.206 322.178,472.114C322.334,471.089 322.336,469.958 321.767,469.686C321.257,469.442 320.373,470.588 319.766,471.597C319.333,471.56 314.612,474.378 311.448,476.386C311.177,476.559 308.63,475.876 308.279,475.943C307.091,476.168 306.155,476.443 306.245,477.326C306.382,478.69 308.759,480.19 310.361,480.956C311.962,481.721 315.978,482.21 317.433,483.193C321.404,485.877 319.499,489.887 318.159,492.93C316.945,495.684 314.834,498.683 316.004,499.383C317.174,500.083 321.025,499.416 323.365,495.959C324.518,496.739 331.753,502.759 331.812,503.347C331.871,503.935 329.845,508.736 330.998,509.515C332.152,510.295 342.226,505.346 346.907,498.432C346.5,501.516 344.423,503.76 343.872,504.574C343.321,505.387 342.6,507.278 343.753,508.057C344.906,508.837 346.474,506.522 347.247,505.38C348.02,504.238 349.775,500.17 350.029,496.694Z" style="fill:rgb(49,55,61);fill-rule:nonzero;"/>
                <path d="M315.342,475.423C318.161,473.377 320.154,472.326 323.905,472.812C322.357,472.046 320.498,471.44 318.442,471.569C313.569,471.877 313.568,474.649 310.324,475.528C309.647,475.711 308.926,475.82 308.28,475.943C310.455,477.159 312.539,477.459 315.342,475.423ZM331.689,480.072C328.108,479.143 322.423,479.007 319.28,479.333C314.983,479.782 312.173,479.114 310.612,478.944C308.057,478.668 310.564,480.889 314.577,481.624C317.73,482.201 323.393,483.351 326.764,485.66C334.185,490.744 341.994,487.064 345.989,485.938C341.876,482.597 335.56,481.075 331.689,480.072Z" style="fill:rgb(225,232,237);fill-rule:nonzero;"/>
                <path d="M317.699,477.014C318.336,477.444 319.201,477.277 319.632,476.641C320.063,476.004 319.896,475.14 319.259,474.709C318.622,474.279 317.756,474.446 317.325,475.082C316.894,475.718 317.062,476.583 317.699,477.014Z" style="fill:rgb(225,232,237);fill-rule:nonzero;"/>
            </g>
            <g>
                <g transform="matrix(1,0,0,1,220.377,371.078)">
                    <rect x="0" y="0" width="33.419" height="33.389" style="fill:rgb(79,79,79);"/>
                </g>
                <path d="M238.019,389.132L229.012,396.116L243.351,389.986L244.182,389.634L244.181,389.631L245.523,389.057L245.591,385.651L247.528,386.186L246.051,382.904L242.064,385.995L239.224,381.119L226.641,380.473L236.231,383.04L236.475,383.87L228.091,383.439L235.635,385.458L236.937,389.971L238.019,389.132ZM237.085,404.471C227.856,404.471 220.375,396.997 220.375,387.776C220.375,378.556 227.856,371.082 237.085,371.082C246.313,371.082 253.794,378.556 253.794,387.776C253.794,396.997 246.313,404.471 237.085,404.471Z" style="fill:rgb(255,205,230);"/>
                <path d="M238.02,389.134L236.938,389.973L235.636,385.46L228.092,383.441L236.476,383.872L238.02,389.134Z" style="fill:rgb(217,155,255);fill-opacity:0.7;fill-rule:nonzero;"/>
                <path d="M238.021,389.134L238.834,391.901L243.353,389.989L229.014,396.119L238.021,389.134ZM242.066,385.998L246.053,382.906L247.53,386.189L245.593,385.654L245.525,389.059L244.183,389.633L242.066,385.998Z" style="fill:rgb(217,155,255);fill-opacity:0.3;fill-rule:nonzero;"/>
            </g>
            <path d="M170.784,462.984C170.446,462.984 169.995,463.177 169.512,463.499C168.594,464.11 166.743,466.041 166.018,467.971C165.471,469.419 165.454,470.738 165.68,471.719C164.778,471.88 164.118,472.169 163.861,472.282C163.039,472.636 161.301,474.18 161.14,476.577C161.091,477.413 161.204,478.266 161.462,479.07C160.399,479.376 159.787,479.762 159.739,479.778C159.224,479.971 158.37,480.566 158.129,480.888C157.565,481.531 157.195,482.287 156.986,483.092C156.519,484.845 156.68,486.84 157.533,488.448C158,489.349 158.644,490.33 159.352,491.022C161.671,493.403 165.664,494.303 168.819,494.818C172.667,495.462 176.693,495.236 180.283,493.756C185.677,491.521 187.109,487.917 187.335,486.936C187.802,484.7 187.222,482.593 186.981,482.078C186.626,481.338 186.047,480.582 185.097,480.1C184.453,479.697 183.889,479.488 183.471,479.392C183.889,477.864 183.294,476.657 182.473,475.756C181.233,474.437 179.961,474.244 179.961,474.244C180.379,473.44 180.541,472.475 180.315,471.542C180.057,470.4 179.43,469.676 178.608,469.193C177.771,468.695 176.741,468.454 175.678,468.261C175.163,468.164 173.022,467.858 172.136,466.636C171.412,465.639 171.396,463.837 171.202,463.306C171.122,463.097 171.009,462.984 170.784,462.984ZM178.254,475.226C178.367,475.226 178.464,475.242 178.56,475.242C180.863,475.499 182.505,477.719 182.231,480.18C181.957,482.641 179.864,484.443 177.562,484.185C175.26,483.896 173.617,481.724 173.891,479.247C174.149,476.915 176.065,475.145 178.254,475.226ZM166.372,475.226C168.514,475.29 170.301,477.108 170.462,479.408C170.655,481.885 168.932,484.025 166.63,484.202L166.614,484.202C164.311,484.378 162.283,482.512 162.09,480.035C161.912,477.558 163.635,475.419 165.937,475.242C166.082,475.226 166.227,475.226 166.372,475.226ZM166.404,477.96C166.34,477.96 166.292,477.96 166.227,477.976C165.326,478.089 164.682,478.909 164.794,479.794C164.82,480.006 164.888,480.211 164.994,480.396C165.099,480.582 165.241,480.744 165.41,480.875C165.58,481.005 165.773,481.1 165.98,481.155C166.187,481.21 166.402,481.223 166.614,481.193C167.515,481.081 168.159,480.26 168.063,479.376C168.011,478.976 167.813,478.611 167.506,478.349C167.2,478.087 166.807,477.949 166.404,477.96ZM178.158,477.992C177.32,478.025 176.644,478.668 176.58,479.521C176.567,479.733 176.596,479.946 176.666,480.147C176.736,480.349 176.846,480.534 176.988,480.693C177.13,480.851 177.303,480.98 177.495,481.071C177.688,481.163 177.896,481.215 178.109,481.226C178.326,481.248 178.545,481.227 178.753,481.163C178.961,481.099 179.154,480.994 179.321,480.854C179.487,480.714 179.624,480.542 179.723,480.348C179.821,480.154 179.88,479.942 179.895,479.725C179.91,479.508 179.882,479.291 179.811,479.085C179.74,478.879 179.628,478.69 179.483,478.528C179.337,478.367 179.161,478.236 178.963,478.144C178.766,478.052 178.552,478 178.335,477.992L178.158,477.992ZM166.517,485.746C166.984,485.73 167.403,485.874 167.789,485.955C169.689,486.309 171.331,486.357 172.12,486.357C172.909,486.357 174.535,486.309 176.419,485.955C177.079,485.826 177.836,485.553 178.431,485.955C179.204,486.47 178.641,488.319 177.449,489.574C176.759,490.287 175.93,490.852 175.014,491.233C174.097,491.615 173.113,491.806 172.12,491.794C169.254,491.794 167.515,490.33 166.791,489.574C165.599,488.319 165.036,486.47 165.793,485.955C166.018,485.81 166.259,485.746 166.517,485.746Z" style="fill:rgb(255,205,230);fill-rule:nonzero;"/>
            <g>
                <path d="M321.701,414.954C320.451,413.242 310.798,414.265 304.204,416.452C302.952,415.744 301.658,415.114 300.329,414.567C299.087,414.052 297.816,413.611 296.523,413.243C293.394,407.05 287.307,399.554 285.217,399.883C282.71,400.277 277.726,411.7 276.778,418.794C274.718,421.351 273.314,424.226 272.338,426.585C271.105,429.565 276.06,442.496 286.915,446.98C297.77,451.464 310.418,445.805 311.651,442.825C312.568,440.608 313.542,437.801 313.945,434.762C318.394,429.263 323.24,417.06 321.701,414.954ZM304.116,430.429C303.578,430.695 302.865,431.592 302.194,433.214C300.388,437.578 302.494,438.448 304.3,434.084C305.075,432.211 305.128,430.987 304.795,430.538C308.576,431.341 309.249,435.038 309.249,435.038C309.249,435.038 307.525,438.746 303.293,438.186C299.062,437.624 298.339,433.591 298.339,433.591C298.339,433.591 300.018,429.999 304.116,430.429ZM288.291,429.44C288.291,429.44 284.928,431.786 281.535,429.198C278.143,426.61 279.545,422.767 279.545,422.767C279.545,422.767 282.634,420.626 285.877,422.724C285.325,422.807 284.496,423.71 283.721,425.583C281.915,429.947 284.022,430.817 285.828,426.453C286.499,424.831 286.629,423.694 286.436,423.127C289.641,425.712 288.291,429.44 288.291,429.44ZM286.059,407.286C286.667,407.189 288.916,409.525 290.939,412.283C287.455,412.12 284.571,412.877 282.179,414.179C283.534,410.669 285.353,407.396 286.059,407.286ZM287.202,446.284C279.236,442.993 274.314,433.053 274.313,433.053C274.313,433.053 282.535,433.646 286.123,432.656C288.387,432.031 292.108,428.398 294.24,429.279C296.372,430.159 296.439,435.357 297.6,437.397C299.44,440.63 305.681,446.011 305.681,446.011C305.68,446.011 295.168,449.575 287.202,446.284ZM313.587,427.575C312.873,424.856 311.385,422.166 308.745,419.719C312.177,419.174 315.503,419.097 315.871,419.602C316.309,420.197 315.196,424.03 313.587,427.575Z" style="fill:rgb(79,79,79);fill-rule:nonzero;"/>
                <path d="M292.667,443.015C291.974,442.666 291.393,442.157 291.031,441.494C290.664,440.847 290.513,440.077 290.673,439.364L290.726,439.134C291.153,439.195 291.679,439.145 292.306,438.89C293.734,438.308 294.509,437.272 294.321,436.646C294.055,435.77 292.433,435.041 291.942,434.838C291.452,434.635 289.787,434.006 288.981,434.44C288.407,434.751 288.221,436.031 288.822,437.451C289.085,438.074 289.422,438.48 289.767,438.738L289.641,438.937C289.249,439.554 288.601,439.995 287.881,440.192C287.169,440.411 286.363,440.345 285.666,440.12C284.907,439.846 284.271,439.399 283.79,438.74C283.283,438.054 283.036,437.21 283.092,436.359C282.78,437.217 282.893,438.225 283.309,439.06C283.718,439.892 284.461,440.589 285.276,440.969C286.105,441.367 287.02,441.469 287.935,441.306C287.899,441.375 287.862,441.442 287.832,441.515C287.446,442.447 287.649,443.415 288.284,443.678C288.919,443.94 289.748,443.397 290.134,442.465C290.164,442.392 290.185,442.317 290.208,442.244C290.735,443.002 291.482,443.587 292.313,443.874C293.201,444.196 294.172,444.211 295.07,443.917C295.953,443.619 296.746,442.985 297.133,442.159C296.572,442.803 295.8,443.226 294.955,443.354C294.159,443.485 293.361,443.342 292.667,443.015Z" style="fill:rgb(79,79,79);fill-rule:nonzero;"/>
            </g>
            <path d="M228.288,423.285C226.716,423.285 225.348,424.177 224.478,425.395C223.609,426.613 223.148,428.186 223.148,429.888C223.148,431.59 223.609,433.164 224.478,434.382C225.348,435.6 226.716,436.491 228.288,436.491C229.859,436.491 231.228,435.599 232.097,434.381C232.967,433.163 233.428,431.59 233.428,429.888C233.428,428.186 232.967,426.611 232.097,425.394C231.228,424.176 229.859,423.285 228.288,423.285ZM233.428,429.888C233.428,431.59 233.889,433.164 234.759,434.382C235.628,435.6 236.998,436.491 238.568,436.491C240.14,436.491 241.508,435.599 242.378,434.381C243.247,433.163 243.708,431.59 243.708,429.888C243.708,428.186 243.247,426.611 242.378,425.394C241.508,424.176 240.14,423.285 238.568,423.285C236.997,423.285 235.628,424.177 234.759,425.395C233.889,426.613 233.428,428.186 233.428,429.888ZM228.288,426.22C228.746,426.22 229.251,426.449 229.712,427.091C230.168,427.732 230.491,428.754 230.491,429.888C230.491,431.022 230.168,432.045 229.712,432.685C229.251,433.327 228.746,433.556 228.288,433.556C227.83,433.556 227.324,433.327 226.863,432.685C226.408,432.043 226.085,431.022 226.085,429.888C226.085,428.754 226.408,427.731 226.863,427.091C227.324,426.449 227.83,426.22 228.288,426.22ZM238.568,426.22C239.026,426.22 239.532,426.449 239.993,427.091C240.448,427.732 240.771,428.754 240.771,429.888C240.771,431.022 240.448,432.045 239.993,432.685C239.532,433.327 239.026,433.556 238.568,433.556C238.11,433.556 237.605,433.327 237.144,432.685C236.688,432.043 236.365,431.022 236.365,429.888C236.365,428.754 236.688,427.731 237.144,427.091C237.605,426.449 238.11,426.22 238.568,426.22ZM220.945,433.556C219.373,433.556 218.005,434.448 217.135,435.666C216.266,436.884 215.805,438.457 215.805,440.159C215.805,441.861 216.266,443.435 217.135,444.653C218.005,445.871 219.373,446.762 220.945,446.762C222.516,446.762 223.885,445.87 224.754,444.652C225.624,443.434 226.085,441.861 226.085,440.159C226.085,438.457 225.624,436.882 224.754,435.665C223.885,434.447 222.516,433.556 220.945,433.556ZM245.911,433.556C244.34,433.556 242.971,434.448 242.102,435.666C241.232,436.884 240.771,438.457 240.771,440.159C240.771,441.861 241.232,443.435 242.102,444.653C242.971,445.871 244.34,446.762 245.911,446.762C247.483,446.762 248.851,445.87 249.721,444.652C250.59,443.434 251.051,441.861 251.051,440.159C251.051,438.457 250.59,436.882 249.721,435.665C248.851,434.447 247.483,433.556 245.911,433.556ZM220.945,436.491C221.403,436.491 221.908,436.72 222.369,437.362C222.825,438.003 223.148,439.025 223.148,440.159C223.148,441.293 222.825,442.316 222.369,442.956C221.908,443.598 221.403,443.827 220.945,443.827C220.487,443.827 219.981,443.598 219.52,442.956C219.065,442.316 218.742,441.293 218.742,440.159C218.742,439.025 219.065,438.002 219.52,437.362C219.981,436.72 220.487,436.491 220.945,436.491ZM245.911,436.491C246.369,436.491 246.875,436.72 247.336,437.362C247.791,438.003 248.114,439.025 248.114,440.159C248.114,441.293 247.791,442.316 247.336,442.956C246.875,443.598 246.369,443.827 245.911,443.827C245.453,443.827 244.948,443.598 244.487,442.956C244.031,442.314 243.708,441.293 243.708,440.159C243.708,439.025 244.031,438.002 244.487,437.362C244.948,436.72 245.453,436.491 245.911,436.491ZM233.428,439.425C231.47,439.425 230.105,440.694 229.433,441.81C228.767,442.925 228.355,443.852 227.965,444.239C227.74,444.47 226.323,445.002 224.845,445.755C224.107,446.132 223.362,446.635 222.735,447.406C222.104,448.176 221.678,449.24 221.678,450.433C221.678,453.25 223.998,455.568 226.818,455.568C228.09,455.568 229.417,455.157 230.717,454.791C232.023,454.415 233.428,454.098 233.428,454.098C233.428,454.098 234.834,454.415 236.136,454.788C237.437,455.155 238.765,455.565 240.037,455.565C242.857,455.565 245.177,453.247 245.177,450.43C245.177,449.265 244.747,448.2 244.12,447.451C243.495,446.699 242.743,446.233 242.011,445.845C240.542,445.067 239.098,444.451 238.89,444.239C238.537,443.892 238.141,442.934 237.465,441.813C236.791,440.687 235.396,439.425 233.428,439.425ZM233.428,442.36C234.397,442.36 234.505,442.595 234.941,443.322C235.381,444.049 235.71,445.283 236.776,446.349C237.988,447.553 239.518,447.817 240.633,448.409C241.191,448.706 241.617,449.021 241.873,449.326C242.127,449.63 242.24,449.908 242.24,450.427C242.24,451.659 241.27,452.628 240.037,452.628C239.611,452.628 238.239,452.305 236.962,451.938C235.684,451.576 234.626,451.161 233.428,451.161C232.23,451.161 231.172,451.576 229.895,451.938C228.617,452.305 227.245,452.628 226.819,452.628C225.586,452.628 224.616,451.659 224.616,450.427C224.616,449.836 224.74,449.532 224.984,449.233C225.227,448.935 225.677,448.64 226.223,448.362C227.316,447.805 228.837,447.585 230.078,446.345C231.155,445.264 231.478,443.99 231.914,443.271C232.343,442.552 232.446,442.354 233.427,442.354L233.428,442.36Z" style="fill:rgb(79,79,79);fill-rule:nonzero;"/>
            <g>
                <path d="M169.172,383.136C169.025,386.392 166.75,390.853 162.355,396.504C157.807,402.417 153.968,405.369 150.813,405.369C148.85,405.369 147.224,403.57 145.863,399.972L143.193,390.07C142.193,386.477 141.126,384.678 139.979,384.678C139.729,384.678 138.852,385.2 137.357,386.249L135.785,384.221C137.421,382.784 139.046,381.335 140.659,379.873C142.856,377.966 144.511,376.972 145.609,376.868C148.209,376.618 149.808,378.401 150.412,382.205C151.06,386.313 151.506,388.868 151.762,389.868C152.512,393.275 153.337,394.982 154.236,394.982C154.932,394.982 155.982,393.873 157.391,391.661C158.789,389.449 159.534,387.77 159.631,386.612C159.832,384.71 159.08,383.748 157.384,383.748C156.585,383.748 155.758,383.918 154.908,384.291C156.562,378.911 159.69,376.281 164.324,376.449C167.767,376.531 169.378,378.764 169.187,383.123L169.172,383.136Z" style="fill:rgb(79,79,79);fill-rule:nonzero;"/>
            </g>
        </g>
    </g>
</svg>
